G04 #@! TF.FileFunction,Legend,Top*
%FSLAX46Y46*%
G04 Gerber Fmt 4.6, Leading zero omitted, Abs format (unit mm)*
G04 Created by KiCad (PCBNEW 4.0.1-stable) date Tuesday, March 29, 2016 'AMt' 01:18:38 AM*
%MOMM*%
G01*
G04 APERTURE LIST*
%ADD10C,0.100000*%
%ADD11C,0.300000*%
%ADD12C,0.150000*%
G04 APERTURE END LIST*
D10*
D11*
X148387715Y-110660571D02*
X147673429Y-110660571D01*
X147673429Y-109160571D01*
X148887715Y-109874857D02*
X149387715Y-109874857D01*
X149602001Y-110660571D02*
X148887715Y-110660571D01*
X148887715Y-109160571D01*
X149602001Y-109160571D01*
X150244858Y-110660571D02*
X150244858Y-109160571D01*
X150602001Y-109160571D01*
X150816286Y-109232000D01*
X150959144Y-109374857D01*
X151030572Y-109517714D01*
X151102001Y-109803429D01*
X151102001Y-110017714D01*
X151030572Y-110303429D01*
X150959144Y-110446286D01*
X150816286Y-110589143D01*
X150602001Y-110660571D01*
X150244858Y-110660571D01*
D12*
X150952000Y-107200000D02*
X148252000Y-107200000D01*
X150952000Y-108700000D02*
X148252000Y-108700000D01*
X149452000Y-107800000D02*
X149452000Y-108050000D01*
X149452000Y-108050000D02*
X149602000Y-107900000D01*
X149702000Y-108300000D02*
X149702000Y-107600000D01*
X149352000Y-107950000D02*
X149002000Y-107950000D01*
X149702000Y-107950000D02*
X149352000Y-108300000D01*
X149352000Y-108300000D02*
X149352000Y-107600000D01*
X149352000Y-107600000D02*
X149702000Y-107950000D01*
X144872000Y-110095000D02*
X143672000Y-110095000D01*
X143672000Y-108345000D02*
X144872000Y-108345000D01*
X144872000Y-107555000D02*
X143672000Y-107555000D01*
X143672000Y-105805000D02*
X144872000Y-105805000D01*
X153783000Y-108112000D02*
X153783000Y-109312000D01*
X152033000Y-109312000D02*
X152033000Y-108112000D01*
X148613905Y-106878381D02*
X148613905Y-105878381D01*
X148852000Y-105878381D01*
X148994858Y-105926000D01*
X149090096Y-106021238D01*
X149137715Y-106116476D01*
X149185334Y-106306952D01*
X149185334Y-106449810D01*
X149137715Y-106640286D01*
X149090096Y-106735524D01*
X148994858Y-106830762D01*
X148852000Y-106878381D01*
X148613905Y-106878381D01*
X150137715Y-106878381D02*
X149566286Y-106878381D01*
X149852000Y-106878381D02*
X149852000Y-105878381D01*
X149756762Y-106021238D01*
X149661524Y-106116476D01*
X149566286Y-106164095D01*
X141565334Y-109672381D02*
X141232000Y-109196190D01*
X140993905Y-109672381D02*
X140993905Y-108672381D01*
X141374858Y-108672381D01*
X141470096Y-108720000D01*
X141517715Y-108767619D01*
X141565334Y-108862857D01*
X141565334Y-109005714D01*
X141517715Y-109100952D01*
X141470096Y-109148571D01*
X141374858Y-109196190D01*
X140993905Y-109196190D01*
X142517715Y-109672381D02*
X141946286Y-109672381D01*
X142232000Y-109672381D02*
X142232000Y-108672381D01*
X142136762Y-108815238D01*
X142041524Y-108910476D01*
X141946286Y-108958095D01*
X141565334Y-107640381D02*
X141232000Y-107164190D01*
X140993905Y-107640381D02*
X140993905Y-106640381D01*
X141374858Y-106640381D01*
X141470096Y-106688000D01*
X141517715Y-106735619D01*
X141565334Y-106830857D01*
X141565334Y-106973714D01*
X141517715Y-107068952D01*
X141470096Y-107116571D01*
X141374858Y-107164190D01*
X140993905Y-107164190D01*
X141946286Y-106735619D02*
X141993905Y-106688000D01*
X142089143Y-106640381D01*
X142327239Y-106640381D01*
X142422477Y-106688000D01*
X142470096Y-106735619D01*
X142517715Y-106830857D01*
X142517715Y-106926095D01*
X142470096Y-107068952D01*
X141898667Y-107640381D01*
X142517715Y-107640381D01*
X154773334Y-110688381D02*
X154440000Y-110212190D01*
X154201905Y-110688381D02*
X154201905Y-109688381D01*
X154582858Y-109688381D01*
X154678096Y-109736000D01*
X154725715Y-109783619D01*
X154773334Y-109878857D01*
X154773334Y-110021714D01*
X154725715Y-110116952D01*
X154678096Y-110164571D01*
X154582858Y-110212190D01*
X154201905Y-110212190D01*
X155106667Y-109688381D02*
X155725715Y-109688381D01*
X155392381Y-110069333D01*
X155535239Y-110069333D01*
X155630477Y-110116952D01*
X155678096Y-110164571D01*
X155725715Y-110259810D01*
X155725715Y-110497905D01*
X155678096Y-110593143D01*
X155630477Y-110640762D01*
X155535239Y-110688381D01*
X155249524Y-110688381D01*
X155154286Y-110640762D01*
X155106667Y-110593143D01*
M02*
