%FSLAX45Y45*%
G04 Gerber Fmt 4.5, Leading zero omitted, Abs format (unit mm)*
G04 Created by KiCad (PCBNEW 4.0.1-stable) date Tuesday, March 29, 2016 'AMt' 01:14:40 AM*
%MOMM*%
G01*
G04 APERTURE LIST*
%ADD10C,0.127000*%
%ADD11C,0.150000*%
%ADD12C,0.200000*%
%ADD13C,0.300000*%
G04 APERTURE END LIST*
D10*
D11*
X13665200Y-11684000D02*
X13665200Y-10058400D01*
X16205200Y-11684000D02*
X13665200Y-11684000D01*
X16205200Y-10058400D02*
X16205200Y-11684000D01*
X13665200Y-10058400D02*
X16205200Y-10058400D01*
D12*
X14565000Y-11212200D02*
X14645000Y-11292200D01*
X14645000Y-11212200D02*
X14565000Y-11292200D01*
X14565000Y-11466200D02*
X14645000Y-11546200D01*
X14645000Y-11466200D02*
X14565000Y-11546200D01*
X15327000Y-11212200D02*
X15407000Y-11292200D01*
X15407000Y-11212200D02*
X15327000Y-11292200D01*
X15327000Y-11466200D02*
X15407000Y-11546200D01*
X15407000Y-11466200D02*
X15327000Y-11546200D01*
X14731200Y-10414000D02*
G75*
G03X14731200Y-10414000I-50000J0D01*
G01*
X14985200Y-10414000D02*
G75*
G03X14985200Y-10414000I-50000J0D01*
G01*
X15239200Y-10414000D02*
G75*
G03X15239200Y-10414000I-50000J0D01*
G01*
X14020800Y-10213200D02*
X14020800Y-10513200D01*
X13870800Y-10363200D02*
X14170800Y-10363200D01*
X14033500Y-11229200D02*
X14033500Y-11529200D01*
X13883500Y-11379200D02*
X14183500Y-11379200D01*
X15938500Y-11229200D02*
X15938500Y-11529200D01*
X15788500Y-11379200D02*
X16088500Y-11379200D01*
X15951200Y-10264000D02*
X15951200Y-10564000D01*
X15801200Y-10414000D02*
X16101200Y-10414000D01*
D13*
X13929128Y-12157214D02*
X13929128Y-11857214D01*
X14000557Y-11857214D01*
X14043414Y-11871500D01*
X14071986Y-11900071D01*
X14086271Y-11928643D01*
X14100557Y-11985786D01*
X14100557Y-12028643D01*
X14086271Y-12085786D01*
X14071986Y-12114357D01*
X14043414Y-12142929D01*
X14000557Y-12157214D01*
X13929128Y-12157214D01*
X14229128Y-12157214D02*
X14229128Y-11957214D01*
X14229128Y-12014357D02*
X14243414Y-11985786D01*
X14257700Y-11971500D01*
X14286271Y-11957214D01*
X14314843Y-11957214D01*
X14414843Y-12157214D02*
X14414843Y-11957214D01*
X14414843Y-11857214D02*
X14400557Y-11871500D01*
X14414843Y-11885786D01*
X14429128Y-11871500D01*
X14414843Y-11857214D01*
X14414843Y-11885786D01*
X14600557Y-12157214D02*
X14571986Y-12142929D01*
X14557700Y-12114357D01*
X14557700Y-11857214D01*
X14757700Y-12157214D02*
X14729128Y-12142929D01*
X14714843Y-12114357D01*
X14714843Y-11857214D01*
X15100557Y-12157214D02*
X15100557Y-11857214D01*
X15200557Y-12071500D01*
X15300557Y-11857214D01*
X15300557Y-12157214D01*
X15571986Y-12157214D02*
X15571986Y-12000071D01*
X15557700Y-11971500D01*
X15529128Y-11957214D01*
X15471986Y-11957214D01*
X15443414Y-11971500D01*
X15571986Y-12142929D02*
X15543414Y-12157214D01*
X15471986Y-12157214D01*
X15443414Y-12142929D01*
X15429128Y-12114357D01*
X15429128Y-12085786D01*
X15443414Y-12057214D01*
X15471986Y-12042929D01*
X15543414Y-12042929D01*
X15571986Y-12028643D01*
X15714843Y-11957214D02*
X15714843Y-12257214D01*
X15714843Y-11971500D02*
X15743414Y-11957214D01*
X15800557Y-11957214D01*
X15829128Y-11971500D01*
X15843414Y-11985786D01*
X15857700Y-12014357D01*
X15857700Y-12100071D01*
X15843414Y-12128643D01*
X15829128Y-12142929D01*
X15800557Y-12157214D01*
X15743414Y-12157214D01*
X15714843Y-12142929D01*
X15986271Y-12128643D02*
X16000557Y-12142929D01*
X15986271Y-12157214D01*
X15971986Y-12142929D01*
X15986271Y-12128643D01*
X15986271Y-12157214D01*
X15986271Y-11971500D02*
X16000557Y-11985786D01*
X15986271Y-12000071D01*
X15971986Y-11985786D01*
X15986271Y-11971500D01*
X15986271Y-12000071D01*
X13577700Y-12611500D02*
X13657700Y-12691500D01*
X13657700Y-12611500D02*
X13577700Y-12691500D01*
X13986271Y-12487214D02*
X14014843Y-12487214D01*
X14043414Y-12501500D01*
X14057700Y-12515786D01*
X14071986Y-12544357D01*
X14086271Y-12601500D01*
X14086271Y-12672929D01*
X14071986Y-12730071D01*
X14057700Y-12758643D01*
X14043414Y-12772929D01*
X14014843Y-12787214D01*
X13986271Y-12787214D01*
X13957700Y-12772929D01*
X13943414Y-12758643D01*
X13929128Y-12730071D01*
X13914843Y-12672929D01*
X13914843Y-12601500D01*
X13929128Y-12544357D01*
X13943414Y-12515786D01*
X13957700Y-12501500D01*
X13986271Y-12487214D01*
X14214843Y-12758643D02*
X14229128Y-12772929D01*
X14214843Y-12787214D01*
X14200557Y-12772929D01*
X14214843Y-12758643D01*
X14214843Y-12787214D01*
X14400557Y-12615786D02*
X14371986Y-12601500D01*
X14357700Y-12587214D01*
X14343414Y-12558643D01*
X14343414Y-12544357D01*
X14357700Y-12515786D01*
X14371986Y-12501500D01*
X14400557Y-12487214D01*
X14457700Y-12487214D01*
X14486271Y-12501500D01*
X14500557Y-12515786D01*
X14514843Y-12544357D01*
X14514843Y-12558643D01*
X14500557Y-12587214D01*
X14486271Y-12601500D01*
X14457700Y-12615786D01*
X14400557Y-12615786D01*
X14371986Y-12630071D01*
X14357700Y-12644357D01*
X14343414Y-12672929D01*
X14343414Y-12730071D01*
X14357700Y-12758643D01*
X14371986Y-12772929D01*
X14400557Y-12787214D01*
X14457700Y-12787214D01*
X14486271Y-12772929D01*
X14500557Y-12758643D01*
X14514843Y-12730071D01*
X14514843Y-12672929D01*
X14500557Y-12644357D01*
X14486271Y-12630071D01*
X14457700Y-12615786D01*
X14700557Y-12487214D02*
X14729128Y-12487214D01*
X14757700Y-12501500D01*
X14771986Y-12515786D01*
X14786271Y-12544357D01*
X14800557Y-12601500D01*
X14800557Y-12672929D01*
X14786271Y-12730071D01*
X14771986Y-12758643D01*
X14757700Y-12772929D01*
X14729128Y-12787214D01*
X14700557Y-12787214D01*
X14671986Y-12772929D01*
X14657700Y-12758643D01*
X14643414Y-12730071D01*
X14629128Y-12672929D01*
X14629128Y-12601500D01*
X14643414Y-12544357D01*
X14657700Y-12515786D01*
X14671986Y-12501500D01*
X14700557Y-12487214D01*
X14929128Y-12787214D02*
X14929128Y-12587214D01*
X14929128Y-12615786D02*
X14943414Y-12601500D01*
X14971986Y-12587214D01*
X15014843Y-12587214D01*
X15043414Y-12601500D01*
X15057700Y-12630071D01*
X15057700Y-12787214D01*
X15057700Y-12630071D02*
X15071986Y-12601500D01*
X15100557Y-12587214D01*
X15143414Y-12587214D01*
X15171986Y-12601500D01*
X15186271Y-12630071D01*
X15186271Y-12787214D01*
X15329128Y-12787214D02*
X15329128Y-12587214D01*
X15329128Y-12615786D02*
X15343414Y-12601500D01*
X15371986Y-12587214D01*
X15414843Y-12587214D01*
X15443414Y-12601500D01*
X15457700Y-12630071D01*
X15457700Y-12787214D01*
X15457700Y-12630071D02*
X15471986Y-12601500D01*
X15500557Y-12587214D01*
X15543414Y-12587214D01*
X15571986Y-12601500D01*
X15586271Y-12630071D01*
X15586271Y-12787214D01*
X16171986Y-12472929D02*
X15914843Y-12858643D01*
X16557700Y-12487214D02*
X16586271Y-12487214D01*
X16614843Y-12501500D01*
X16629128Y-12515786D01*
X16643414Y-12544357D01*
X16657700Y-12601500D01*
X16657700Y-12672929D01*
X16643414Y-12730071D01*
X16629128Y-12758643D01*
X16614843Y-12772929D01*
X16586271Y-12787214D01*
X16557700Y-12787214D01*
X16529128Y-12772929D01*
X16514843Y-12758643D01*
X16500557Y-12730071D01*
X16486271Y-12672929D01*
X16486271Y-12601500D01*
X16500557Y-12544357D01*
X16514843Y-12515786D01*
X16529128Y-12501500D01*
X16557700Y-12487214D01*
X16786271Y-12758643D02*
X16800557Y-12772929D01*
X16786271Y-12787214D01*
X16771986Y-12772929D01*
X16786271Y-12758643D01*
X16786271Y-12787214D01*
X16986271Y-12487214D02*
X17014843Y-12487214D01*
X17043414Y-12501500D01*
X17057700Y-12515786D01*
X17071986Y-12544357D01*
X17086271Y-12601500D01*
X17086271Y-12672929D01*
X17071986Y-12730071D01*
X17057700Y-12758643D01*
X17043414Y-12772929D01*
X17014843Y-12787214D01*
X16986271Y-12787214D01*
X16957700Y-12772929D01*
X16943414Y-12758643D01*
X16929128Y-12730071D01*
X16914843Y-12672929D01*
X16914843Y-12601500D01*
X16929128Y-12544357D01*
X16943414Y-12515786D01*
X16957700Y-12501500D01*
X16986271Y-12487214D01*
X17186271Y-12487214D02*
X17371986Y-12487214D01*
X17271986Y-12601500D01*
X17314843Y-12601500D01*
X17343414Y-12615786D01*
X17357700Y-12630071D01*
X17371986Y-12658643D01*
X17371986Y-12730071D01*
X17357700Y-12758643D01*
X17343414Y-12772929D01*
X17314843Y-12787214D01*
X17229128Y-12787214D01*
X17200557Y-12772929D01*
X17186271Y-12758643D01*
X17657700Y-12787214D02*
X17486271Y-12787214D01*
X17571986Y-12787214D02*
X17571986Y-12487214D01*
X17543414Y-12530071D01*
X17514843Y-12558643D01*
X17486271Y-12572929D01*
X17771986Y-12487214D02*
X17771986Y-12544357D01*
X17886271Y-12487214D02*
X17886271Y-12544357D01*
X18329128Y-12901500D02*
X18314843Y-12887214D01*
X18286271Y-12844357D01*
X18271986Y-12815786D01*
X18257700Y-12772929D01*
X18243414Y-12701500D01*
X18243414Y-12644357D01*
X18257700Y-12572929D01*
X18271986Y-12530071D01*
X18286271Y-12501500D01*
X18314843Y-12458643D01*
X18329128Y-12444357D01*
X18571986Y-12587214D02*
X18571986Y-12787214D01*
X18500557Y-12472929D02*
X18429128Y-12687214D01*
X18614843Y-12687214D01*
X18957700Y-12787214D02*
X18957700Y-12487214D01*
X19086271Y-12787214D02*
X19086271Y-12630071D01*
X19071986Y-12601500D01*
X19043414Y-12587214D01*
X19000557Y-12587214D01*
X18971986Y-12601500D01*
X18957700Y-12615786D01*
X19271986Y-12787214D02*
X19243414Y-12772929D01*
X19229128Y-12758643D01*
X19214843Y-12730071D01*
X19214843Y-12644357D01*
X19229128Y-12615786D01*
X19243414Y-12601500D01*
X19271986Y-12587214D01*
X19314843Y-12587214D01*
X19343414Y-12601500D01*
X19357700Y-12615786D01*
X19371986Y-12644357D01*
X19371986Y-12730071D01*
X19357700Y-12758643D01*
X19343414Y-12772929D01*
X19314843Y-12787214D01*
X19271986Y-12787214D01*
X19543414Y-12787214D02*
X19514843Y-12772929D01*
X19500557Y-12744357D01*
X19500557Y-12487214D01*
X19771986Y-12772929D02*
X19743414Y-12787214D01*
X19686271Y-12787214D01*
X19657700Y-12772929D01*
X19643414Y-12744357D01*
X19643414Y-12630071D01*
X19657700Y-12601500D01*
X19686271Y-12587214D01*
X19743414Y-12587214D01*
X19771986Y-12601500D01*
X19786271Y-12630071D01*
X19786271Y-12658643D01*
X19643414Y-12687214D01*
X19900557Y-12772929D02*
X19929129Y-12787214D01*
X19986271Y-12787214D01*
X20014843Y-12772929D01*
X20029129Y-12744357D01*
X20029129Y-12730071D01*
X20014843Y-12701500D01*
X19986271Y-12687214D01*
X19943414Y-12687214D01*
X19914843Y-12672929D01*
X19900557Y-12644357D01*
X19900557Y-12630071D01*
X19914843Y-12601500D01*
X19943414Y-12587214D01*
X19986271Y-12587214D01*
X20014843Y-12601500D01*
X20129128Y-12901500D02*
X20143414Y-12887214D01*
X20171986Y-12844357D01*
X20186271Y-12815786D01*
X20200557Y-12772929D01*
X20214843Y-12701500D01*
X20214843Y-12644357D01*
X20200557Y-12572929D01*
X20186271Y-12530071D01*
X20171986Y-12501500D01*
X20143414Y-12458643D01*
X20129128Y-12444357D01*
X13657700Y-13047500D02*
G75*
G03X13657700Y-13047500I-50000J0D01*
G01*
X14086271Y-13183214D02*
X13914843Y-13183214D01*
X14000557Y-13183214D02*
X14000557Y-12883214D01*
X13971986Y-12926071D01*
X13943414Y-12954643D01*
X13914843Y-12968929D01*
X14214843Y-13154643D02*
X14229128Y-13168929D01*
X14214843Y-13183214D01*
X14200557Y-13168929D01*
X14214843Y-13154643D01*
X14214843Y-13183214D01*
X14414843Y-12883214D02*
X14443414Y-12883214D01*
X14471986Y-12897500D01*
X14486271Y-12911786D01*
X14500557Y-12940357D01*
X14514843Y-12997500D01*
X14514843Y-13068929D01*
X14500557Y-13126071D01*
X14486271Y-13154643D01*
X14471986Y-13168929D01*
X14443414Y-13183214D01*
X14414843Y-13183214D01*
X14386271Y-13168929D01*
X14371986Y-13154643D01*
X14357700Y-13126071D01*
X14343414Y-13068929D01*
X14343414Y-12997500D01*
X14357700Y-12940357D01*
X14371986Y-12911786D01*
X14386271Y-12897500D01*
X14414843Y-12883214D01*
X14700557Y-12883214D02*
X14729128Y-12883214D01*
X14757700Y-12897500D01*
X14771986Y-12911786D01*
X14786271Y-12940357D01*
X14800557Y-12997500D01*
X14800557Y-13068929D01*
X14786271Y-13126071D01*
X14771986Y-13154643D01*
X14757700Y-13168929D01*
X14729128Y-13183214D01*
X14700557Y-13183214D01*
X14671986Y-13168929D01*
X14657700Y-13154643D01*
X14643414Y-13126071D01*
X14629128Y-13068929D01*
X14629128Y-12997500D01*
X14643414Y-12940357D01*
X14657700Y-12911786D01*
X14671986Y-12897500D01*
X14700557Y-12883214D01*
X14929128Y-13183214D02*
X14929128Y-12983214D01*
X14929128Y-13011786D02*
X14943414Y-12997500D01*
X14971986Y-12983214D01*
X15014843Y-12983214D01*
X15043414Y-12997500D01*
X15057700Y-13026071D01*
X15057700Y-13183214D01*
X15057700Y-13026071D02*
X15071986Y-12997500D01*
X15100557Y-12983214D01*
X15143414Y-12983214D01*
X15171986Y-12997500D01*
X15186271Y-13026071D01*
X15186271Y-13183214D01*
X15329128Y-13183214D02*
X15329128Y-12983214D01*
X15329128Y-13011786D02*
X15343414Y-12997500D01*
X15371986Y-12983214D01*
X15414843Y-12983214D01*
X15443414Y-12997500D01*
X15457700Y-13026071D01*
X15457700Y-13183214D01*
X15457700Y-13026071D02*
X15471986Y-12997500D01*
X15500557Y-12983214D01*
X15543414Y-12983214D01*
X15571986Y-12997500D01*
X15586271Y-13026071D01*
X15586271Y-13183214D01*
X16171986Y-12868929D02*
X15914843Y-13254643D01*
X16557700Y-12883214D02*
X16586271Y-12883214D01*
X16614843Y-12897500D01*
X16629128Y-12911786D01*
X16643414Y-12940357D01*
X16657700Y-12997500D01*
X16657700Y-13068929D01*
X16643414Y-13126071D01*
X16629128Y-13154643D01*
X16614843Y-13168929D01*
X16586271Y-13183214D01*
X16557700Y-13183214D01*
X16529128Y-13168929D01*
X16514843Y-13154643D01*
X16500557Y-13126071D01*
X16486271Y-13068929D01*
X16486271Y-12997500D01*
X16500557Y-12940357D01*
X16514843Y-12911786D01*
X16529128Y-12897500D01*
X16557700Y-12883214D01*
X16786271Y-13154643D02*
X16800557Y-13168929D01*
X16786271Y-13183214D01*
X16771986Y-13168929D01*
X16786271Y-13154643D01*
X16786271Y-13183214D01*
X16986271Y-12883214D02*
X17014843Y-12883214D01*
X17043414Y-12897500D01*
X17057700Y-12911786D01*
X17071986Y-12940357D01*
X17086271Y-12997500D01*
X17086271Y-13068929D01*
X17071986Y-13126071D01*
X17057700Y-13154643D01*
X17043414Y-13168929D01*
X17014843Y-13183214D01*
X16986271Y-13183214D01*
X16957700Y-13168929D01*
X16943414Y-13154643D01*
X16929128Y-13126071D01*
X16914843Y-13068929D01*
X16914843Y-12997500D01*
X16929128Y-12940357D01*
X16943414Y-12911786D01*
X16957700Y-12897500D01*
X16986271Y-12883214D01*
X17186271Y-12883214D02*
X17371986Y-12883214D01*
X17271986Y-12997500D01*
X17314843Y-12997500D01*
X17343414Y-13011786D01*
X17357700Y-13026071D01*
X17371986Y-13054643D01*
X17371986Y-13126071D01*
X17357700Y-13154643D01*
X17343414Y-13168929D01*
X17314843Y-13183214D01*
X17229128Y-13183214D01*
X17200557Y-13168929D01*
X17186271Y-13154643D01*
X17514843Y-13183214D02*
X17571986Y-13183214D01*
X17600557Y-13168929D01*
X17614843Y-13154643D01*
X17643414Y-13111786D01*
X17657700Y-13054643D01*
X17657700Y-12940357D01*
X17643414Y-12911786D01*
X17629128Y-12897500D01*
X17600557Y-12883214D01*
X17543414Y-12883214D01*
X17514843Y-12897500D01*
X17500557Y-12911786D01*
X17486271Y-12940357D01*
X17486271Y-13011786D01*
X17500557Y-13040357D01*
X17514843Y-13054643D01*
X17543414Y-13068929D01*
X17600557Y-13068929D01*
X17629128Y-13054643D01*
X17643414Y-13040357D01*
X17657700Y-13011786D01*
X17771986Y-12883214D02*
X17771986Y-12940357D01*
X17886271Y-12883214D02*
X17886271Y-12940357D01*
X18329128Y-13297500D02*
X18314843Y-13283214D01*
X18286271Y-13240357D01*
X18271986Y-13211786D01*
X18257700Y-13168929D01*
X18243414Y-13097500D01*
X18243414Y-13040357D01*
X18257700Y-12968929D01*
X18271986Y-12926071D01*
X18286271Y-12897500D01*
X18314843Y-12854643D01*
X18329128Y-12840357D01*
X18414843Y-12883214D02*
X18600557Y-12883214D01*
X18500557Y-12997500D01*
X18543414Y-12997500D01*
X18571986Y-13011786D01*
X18586271Y-13026071D01*
X18600557Y-13054643D01*
X18600557Y-13126071D01*
X18586271Y-13154643D01*
X18571986Y-13168929D01*
X18543414Y-13183214D01*
X18457700Y-13183214D01*
X18429128Y-13168929D01*
X18414843Y-13154643D01*
X18957700Y-13183214D02*
X18957700Y-12883214D01*
X19086271Y-13183214D02*
X19086271Y-13026071D01*
X19071986Y-12997500D01*
X19043414Y-12983214D01*
X19000557Y-12983214D01*
X18971986Y-12997500D01*
X18957700Y-13011786D01*
X19271986Y-13183214D02*
X19243414Y-13168929D01*
X19229128Y-13154643D01*
X19214843Y-13126071D01*
X19214843Y-13040357D01*
X19229128Y-13011786D01*
X19243414Y-12997500D01*
X19271986Y-12983214D01*
X19314843Y-12983214D01*
X19343414Y-12997500D01*
X19357700Y-13011786D01*
X19371986Y-13040357D01*
X19371986Y-13126071D01*
X19357700Y-13154643D01*
X19343414Y-13168929D01*
X19314843Y-13183214D01*
X19271986Y-13183214D01*
X19543414Y-13183214D02*
X19514843Y-13168929D01*
X19500557Y-13140357D01*
X19500557Y-12883214D01*
X19771986Y-13168929D02*
X19743414Y-13183214D01*
X19686271Y-13183214D01*
X19657700Y-13168929D01*
X19643414Y-13140357D01*
X19643414Y-13026071D01*
X19657700Y-12997500D01*
X19686271Y-12983214D01*
X19743414Y-12983214D01*
X19771986Y-12997500D01*
X19786271Y-13026071D01*
X19786271Y-13054643D01*
X19643414Y-13083214D01*
X19900557Y-13168929D02*
X19929129Y-13183214D01*
X19986271Y-13183214D01*
X20014843Y-13168929D01*
X20029129Y-13140357D01*
X20029129Y-13126071D01*
X20014843Y-13097500D01*
X19986271Y-13083214D01*
X19943414Y-13083214D01*
X19914843Y-13068929D01*
X19900557Y-13040357D01*
X19900557Y-13026071D01*
X19914843Y-12997500D01*
X19943414Y-12983214D01*
X19986271Y-12983214D01*
X20014843Y-12997500D01*
X20129128Y-13297500D02*
X20143414Y-13283214D01*
X20171986Y-13240357D01*
X20186271Y-13211786D01*
X20200557Y-13168929D01*
X20214843Y-13097500D01*
X20214843Y-13040357D01*
X20200557Y-12968929D01*
X20186271Y-12926071D01*
X20171986Y-12897500D01*
X20143414Y-12854643D01*
X20129128Y-12840357D01*
X13507700Y-13293500D02*
X13507700Y-13593500D01*
X13357700Y-13443500D02*
X13657700Y-13443500D01*
X13900557Y-13279214D02*
X14086271Y-13279214D01*
X13986271Y-13393500D01*
X14029128Y-13393500D01*
X14057700Y-13407786D01*
X14071986Y-13422071D01*
X14086271Y-13450643D01*
X14086271Y-13522071D01*
X14071986Y-13550643D01*
X14057700Y-13564929D01*
X14029128Y-13579214D01*
X13943414Y-13579214D01*
X13914843Y-13564929D01*
X13900557Y-13550643D01*
X14214843Y-13550643D02*
X14229128Y-13564929D01*
X14214843Y-13579214D01*
X14200557Y-13564929D01*
X14214843Y-13550643D01*
X14214843Y-13579214D01*
X14414843Y-13279214D02*
X14443414Y-13279214D01*
X14471986Y-13293500D01*
X14486271Y-13307786D01*
X14500557Y-13336357D01*
X14514843Y-13393500D01*
X14514843Y-13464929D01*
X14500557Y-13522071D01*
X14486271Y-13550643D01*
X14471986Y-13564929D01*
X14443414Y-13579214D01*
X14414843Y-13579214D01*
X14386271Y-13564929D01*
X14371986Y-13550643D01*
X14357700Y-13522071D01*
X14343414Y-13464929D01*
X14343414Y-13393500D01*
X14357700Y-13336357D01*
X14371986Y-13307786D01*
X14386271Y-13293500D01*
X14414843Y-13279214D01*
X14700557Y-13279214D02*
X14729128Y-13279214D01*
X14757700Y-13293500D01*
X14771986Y-13307786D01*
X14786271Y-13336357D01*
X14800557Y-13393500D01*
X14800557Y-13464929D01*
X14786271Y-13522071D01*
X14771986Y-13550643D01*
X14757700Y-13564929D01*
X14729128Y-13579214D01*
X14700557Y-13579214D01*
X14671986Y-13564929D01*
X14657700Y-13550643D01*
X14643414Y-13522071D01*
X14629128Y-13464929D01*
X14629128Y-13393500D01*
X14643414Y-13336357D01*
X14657700Y-13307786D01*
X14671986Y-13293500D01*
X14700557Y-13279214D01*
X14929128Y-13579214D02*
X14929128Y-13379214D01*
X14929128Y-13407786D02*
X14943414Y-13393500D01*
X14971986Y-13379214D01*
X15014843Y-13379214D01*
X15043414Y-13393500D01*
X15057700Y-13422071D01*
X15057700Y-13579214D01*
X15057700Y-13422071D02*
X15071986Y-13393500D01*
X15100557Y-13379214D01*
X15143414Y-13379214D01*
X15171986Y-13393500D01*
X15186271Y-13422071D01*
X15186271Y-13579214D01*
X15329128Y-13579214D02*
X15329128Y-13379214D01*
X15329128Y-13407786D02*
X15343414Y-13393500D01*
X15371986Y-13379214D01*
X15414843Y-13379214D01*
X15443414Y-13393500D01*
X15457700Y-13422071D01*
X15457700Y-13579214D01*
X15457700Y-13422071D02*
X15471986Y-13393500D01*
X15500557Y-13379214D01*
X15543414Y-13379214D01*
X15571986Y-13393500D01*
X15586271Y-13422071D01*
X15586271Y-13579214D01*
X16171986Y-13264929D02*
X15914843Y-13650643D01*
X16557700Y-13279214D02*
X16586271Y-13279214D01*
X16614843Y-13293500D01*
X16629128Y-13307786D01*
X16643414Y-13336357D01*
X16657700Y-13393500D01*
X16657700Y-13464929D01*
X16643414Y-13522071D01*
X16629128Y-13550643D01*
X16614843Y-13564929D01*
X16586271Y-13579214D01*
X16557700Y-13579214D01*
X16529128Y-13564929D01*
X16514843Y-13550643D01*
X16500557Y-13522071D01*
X16486271Y-13464929D01*
X16486271Y-13393500D01*
X16500557Y-13336357D01*
X16514843Y-13307786D01*
X16529128Y-13293500D01*
X16557700Y-13279214D01*
X16786271Y-13550643D02*
X16800557Y-13564929D01*
X16786271Y-13579214D01*
X16771986Y-13564929D01*
X16786271Y-13550643D01*
X16786271Y-13579214D01*
X17086271Y-13579214D02*
X16914843Y-13579214D01*
X17000557Y-13579214D02*
X17000557Y-13279214D01*
X16971986Y-13322071D01*
X16943414Y-13350643D01*
X16914843Y-13364929D01*
X17371986Y-13579214D02*
X17200557Y-13579214D01*
X17286271Y-13579214D02*
X17286271Y-13279214D01*
X17257700Y-13322071D01*
X17229128Y-13350643D01*
X17200557Y-13364929D01*
X17543414Y-13407786D02*
X17514843Y-13393500D01*
X17500557Y-13379214D01*
X17486271Y-13350643D01*
X17486271Y-13336357D01*
X17500557Y-13307786D01*
X17514843Y-13293500D01*
X17543414Y-13279214D01*
X17600557Y-13279214D01*
X17629128Y-13293500D01*
X17643414Y-13307786D01*
X17657700Y-13336357D01*
X17657700Y-13350643D01*
X17643414Y-13379214D01*
X17629128Y-13393500D01*
X17600557Y-13407786D01*
X17543414Y-13407786D01*
X17514843Y-13422071D01*
X17500557Y-13436357D01*
X17486271Y-13464929D01*
X17486271Y-13522071D01*
X17500557Y-13550643D01*
X17514843Y-13564929D01*
X17543414Y-13579214D01*
X17600557Y-13579214D01*
X17629128Y-13564929D01*
X17643414Y-13550643D01*
X17657700Y-13522071D01*
X17657700Y-13464929D01*
X17643414Y-13436357D01*
X17629128Y-13422071D01*
X17600557Y-13407786D01*
X17771986Y-13279214D02*
X17771986Y-13336357D01*
X17886271Y-13279214D02*
X17886271Y-13336357D01*
X18329128Y-13693500D02*
X18314843Y-13679214D01*
X18286271Y-13636357D01*
X18271986Y-13607786D01*
X18257700Y-13564929D01*
X18243414Y-13493500D01*
X18243414Y-13436357D01*
X18257700Y-13364929D01*
X18271986Y-13322071D01*
X18286271Y-13293500D01*
X18314843Y-13250643D01*
X18329128Y-13236357D01*
X18571986Y-13379214D02*
X18571986Y-13579214D01*
X18500557Y-13264929D02*
X18429128Y-13479214D01*
X18614843Y-13479214D01*
X18957700Y-13579214D02*
X18957700Y-13279214D01*
X19086271Y-13579214D02*
X19086271Y-13422071D01*
X19071986Y-13393500D01*
X19043414Y-13379214D01*
X19000557Y-13379214D01*
X18971986Y-13393500D01*
X18957700Y-13407786D01*
X19271986Y-13579214D02*
X19243414Y-13564929D01*
X19229128Y-13550643D01*
X19214843Y-13522071D01*
X19214843Y-13436357D01*
X19229128Y-13407786D01*
X19243414Y-13393500D01*
X19271986Y-13379214D01*
X19314843Y-13379214D01*
X19343414Y-13393500D01*
X19357700Y-13407786D01*
X19371986Y-13436357D01*
X19371986Y-13522071D01*
X19357700Y-13550643D01*
X19343414Y-13564929D01*
X19314843Y-13579214D01*
X19271986Y-13579214D01*
X19543414Y-13579214D02*
X19514843Y-13564929D01*
X19500557Y-13536357D01*
X19500557Y-13279214D01*
X19771986Y-13564929D02*
X19743414Y-13579214D01*
X19686271Y-13579214D01*
X19657700Y-13564929D01*
X19643414Y-13536357D01*
X19643414Y-13422071D01*
X19657700Y-13393500D01*
X19686271Y-13379214D01*
X19743414Y-13379214D01*
X19771986Y-13393500D01*
X19786271Y-13422071D01*
X19786271Y-13450643D01*
X19643414Y-13479214D01*
X19900557Y-13564929D02*
X19929129Y-13579214D01*
X19986271Y-13579214D01*
X20014843Y-13564929D01*
X20029129Y-13536357D01*
X20029129Y-13522071D01*
X20014843Y-13493500D01*
X19986271Y-13479214D01*
X19943414Y-13479214D01*
X19914843Y-13464929D01*
X19900557Y-13436357D01*
X19900557Y-13422071D01*
X19914843Y-13393500D01*
X19943414Y-13379214D01*
X19986271Y-13379214D01*
X20014843Y-13393500D01*
X20129128Y-13693500D02*
X20143414Y-13679214D01*
X20171986Y-13636357D01*
X20186271Y-13607786D01*
X20200557Y-13564929D01*
X20214843Y-13493500D01*
X20214843Y-13436357D01*
X20200557Y-13364929D01*
X20186271Y-13322071D01*
X20171986Y-13293500D01*
X20143414Y-13250643D01*
X20129128Y-13236357D01*
M02*
